# xmcd
#
# Track frame offsets:
#	150
#	19904
#	38727
#	67398
#	84952
#	111022
#	127429
#	150856
#	189495
#	250940
#	268876
#	292646
#	314356
#	337887
#
# Disc length: 4723 seconds
#
# Revision: 1
# Processed by: cddbd v1.5.2PL0 Copyright (c) Steve Scherf et al.
# Submitted via: audiograbber 1.83.01
#
DISCID=c212710e
DTITLE=Chris Duarte - This That And The Other
DYEAR=2011
DGENRE=Blues
TTITLE0=Siempre Mi Amor
TTITLE1=Senor Duarte
TTITLE2=Cold Cold Day
TTITLE3=Cross My Heart
TTITLE4=Floating Bridge
TTITLE5=Tropic Joy
TTITLE6=Well You Needn't
TTITLE7=Azul Ezell
TTITLE8=Last Night
TTITLE9=Violence
TTITLE10=The Only Thing
TTITLE11=Red Desert
TTITLE12=Black River
TTITLE13=Drinkin' Free
EXTD=
EXTT0=
EXTT1=
EXTT2=
EXTT3=
EXTT4=
EXTT5=
EXTT6=
EXTT7=
EXTT8=
EXTT9=
EXTT10=
EXTT11=
EXTT12=
EXTT13=
PLAYORDER=
